<?xml version="1.0" encoding="utf-8"?>
<!-- Generator: Adobe Illustrator 16.0.0, SVG Export Plug-In . SVG Version: 6.00 Build 0)  -->
<!DOCTYPE svg PUBLIC "-//W3C//DTD SVG 1.1//EN" "http://www.w3.org/Graphics/SVG/1.1/DTD/svg11.dtd">
<svg version="1.1" id="Ebene_1" xmlns="http://www.w3.org/2000/svg" xmlns:xlink="http://www.w3.org/1999/xlink" x="0px" y="0px"
	 width="1000px" height="344.736px" viewBox="0 0 1000 344.736" enable-background="new 0 0 1000 344.736" xml:space="preserve">
<g>
	<g>
		<polygon fill="#222222" points="547.735,55.894 446.52,258.325 459.943,258.325 547.735,82.743 635.526,258.325 648.952,258.325 
					"/>
		<polygon fill="#222222" points="547.735,105.376 471.26,258.325 462.896,275.054 632.574,275.054 624.211,258.325 		"/>
	</g>
	<path fill="#222222" d="M87.228,100.529V228.3H70.207V100.529H87.228z"/>
	<path fill="#222222" d="M147.103,154.618H164.2V228.3h-17.097v-7.717c-7.011,6.557-14.55,9.835-22.619,9.835
		c-10.188,0-18.61-3.683-25.267-11.045c-6.608-7.515-9.91-16.896-9.91-28.142c0-11.045,3.302-20.249,9.91-27.611
		c6.605-7.363,14.876-11.045,24.812-11.045c8.574,0,16.265,3.529,23.073,10.591L147.103,154.618L147.103,154.618z M106.707,191.231
		c0,7.062,1.892,12.81,5.674,17.248c3.882,4.487,8.775,6.732,14.676,6.732c6.303,0,11.397-2.169,15.281-6.506
		c3.883-4.488,5.825-10.188,5.825-17.098c0-6.908-1.942-12.607-5.825-17.097c-3.884-4.388-8.926-6.582-15.129-6.582
		c-5.851,0-10.742,2.22-14.676,6.657C108.648,179.077,106.707,184.626,106.707,191.231z"/>
	<path fill="#222222" d="M219.999,154.618h17.096V228.3h-17.096v-7.717c-7.01,6.557-14.55,9.835-22.619,9.835
		c-10.188,0-18.609-3.683-25.266-11.045c-6.607-7.515-9.91-16.896-9.91-28.142c0-11.045,3.303-20.249,9.91-27.611
		c6.606-7.363,14.877-11.045,24.812-11.045c8.573,0,16.264,3.529,23.073,10.591V154.618L219.999,154.618z M179.603,191.231
		c0,7.062,1.891,12.81,5.674,17.248c3.883,4.487,8.775,6.732,14.676,6.732c6.303,0,11.397-2.169,15.28-6.506
		c3.883-4.488,5.825-10.188,5.825-17.098c0-6.908-1.942-12.607-5.825-17.097c-3.883-4.388-8.926-6.582-15.129-6.582
		c-5.85,0-10.742,2.22-14.676,6.657C181.544,179.077,179.603,184.626,179.603,191.231z"/>
	<path fill="#222222" d="M257.601,100.529v62.638c6.808-7.062,14.524-10.591,23.148-10.591c9.936,0,18.206,3.707,24.813,11.12
		c6.606,7.363,9.91,16.543,9.91,27.538c0,11.347-3.329,20.728-9.986,28.141c-6.606,7.363-14.953,11.045-25.04,11.045
		c-8.523,0-16.138-3.277-22.846-9.835v7.717h-17.02V100.529H257.601z M298.073,191.988c0-7.061-1.917-12.811-5.75-17.248
		c-3.883-4.539-8.75-6.809-14.6-6.809c-6.254,0-11.347,2.194-15.281,6.582c-3.883,4.338-5.825,9.985-5.825,16.945
		c0,7.161,1.917,12.885,5.749,17.172c3.833,4.389,8.876,6.582,15.13,6.582c5.9,0,10.792-2.193,14.675-6.582
		C296.105,204.192,298.073,198.646,298.073,191.988z"/>
	<path fill="#222222" d="M314.477,154.618h17.021v6.582c3.126-3.279,5.9-5.522,8.32-6.733c2.472-1.26,5.397-1.891,8.776-1.891
		c4.488,0,9.178,1.463,14.07,4.388l-7.793,15.583c-3.228-2.319-6.379-3.48-9.454-3.48c-9.279,0-13.92,7.01-13.92,21.032V228.3
		h-17.021L314.477,154.618L314.477,154.618z"/>
</g>
</svg>
